# Blender v2.91.2 OBJ File: 'houseFront.blend'
# www.blender.org
mtllib houseFront2.mtl
o windowWallLeft_Cube
v 1.000000 5.775000 -11.462290
v 1.000000 1.225000 -11.462290
v 1.000000 5.775000 -5.815247
v 1.000000 1.225000 -5.815247
v -1.000000 5.775000 -11.462290
v -1.000000 1.225000 -11.462290
v -1.000000 5.775000 -5.815247
v -1.000000 1.225000 -5.815247
v 1.000000 7.000000 -12.982647
v 1.000000 0.000000 -12.982647
v 1.000000 7.000000 -4.294890
v 1.000000 0.000000 -4.294890
v -1.000000 0.000000 -12.982647
v -1.000000 0.000000 -4.294890
v -1.000000 7.000000 -4.294890
v -1.000000 7.000000 -12.982647
vt 0.000087 0.000087
vt 0.749956 0.000087
vt 0.749956 0.999913
vt 0.000087 0.999913
vt 0.000087 0.999913
vt 0.000087 0.000087
vt 0.749956 0.000087
vt 0.749956 0.999913
vt 0.000087 0.000087
vt 0.749956 0.000087
vt 0.749956 0.999913
vt 0.000087 0.999913
vt 0.749957 0.000087
vt 0.749957 0.999913
vt 0.000087 0.999913
vt 0.000087 0.000087
vt 0.131314 0.175056
vt 0.131314 0.824944
vt 0.000087 0.999913
vt 0.618729 0.824944
vt 0.618729 0.175056
vt 0.749956 0.000087
vt 0.618729 0.175056
vt 0.131314 0.175056
vt 0.749957 0.000087
vt 0.618729 0.824944
vt 0.131314 0.824944
vt 0.000087 0.999913
vn 0.0000 1.0000 0.0000
vn 0.0000 0.0000 1.0000
vn 0.0000 -1.0000 0.0000
vn 0.0000 0.0000 -1.0000
vn 1.0000 0.0000 0.0000
vn -1.0000 0.0000 0.0000
g windowWallLeft_Cube_Material
usemtl Material
s off
f 9/1/1 16/2/1 15/3/1 11/4/1
f 12/5/2 11/6/2 15/7/2 14/8/2
f 13/9/3 10/10/3 12/11/3 14/12/3
f 13/13/4 16/14/4 9/15/4 10/16/4
f 1/17/5 2/18/5 10/19/5 9/1/5
f 4/20/5 3/21/5 11/22/5 12/11/5
f 3/21/5 1/17/5 9/1/5 11/22/5
f 2/18/5 4/20/5 12/11/5 10/19/5
f 8/23/6 6/24/6 13/9/6 14/25/6
f 7/26/6 8/23/6 14/25/6 15/3/6
f 6/24/6 5/27/6 16/28/6 13/9/6
f 5/27/6 7/26/6 15/3/6 16/28/6
o windowWallRight_Cube.005
v 1.000000 5.775000 5.176479
v 1.000000 1.225000 5.176479
v 1.000000 5.775000 10.823521
v 1.000000 1.225000 10.823521
v -1.000000 5.775000 5.176479
v -1.000000 1.225000 5.176479
v -1.000000 5.775000 10.823521
v -1.000000 1.225000 10.823521
v 1.000000 7.000000 3.656122
v 1.000000 0.000000 3.656122
v 1.000000 7.000000 12.343878
v 1.000000 0.000000 12.343878
v -1.000000 0.000000 3.656122
v -1.000000 0.000000 12.343878
v -1.000000 7.000000 12.343878
v -1.000000 7.000000 3.656122
vt 0.000087 0.000087
vt 0.749956 0.000087
vt 0.749956 0.999913
vt 0.000087 0.999913
vt 0.000087 0.999913
vt 0.000087 0.000087
vt 0.749956 0.000087
vt 0.749956 0.999913
vt 0.000087 0.000087
vt 0.749956 0.000087
vt 0.749956 0.999913
vt 0.000087 0.999913
vt 0.749957 0.000087
vt 0.749957 0.999913
vt 0.000087 0.999913
vt 0.000087 0.000087
vt 0.131314 0.175056
vt 0.131314 0.824944
vt 0.000087 0.999913
vt 0.618729 0.824944
vt 0.618729 0.175056
vt 0.749956 0.000087
vt 0.618729 0.175056
vt 0.131314 0.175056
vt 0.749957 0.000087
vt 0.618729 0.824944
vt 0.131314 0.824944
vt 0.000087 0.999913
vn 0.0000 1.0000 0.0000
vn 0.0000 0.0000 1.0000
vn 0.0000 -1.0000 0.0000
vn 0.0000 0.0000 -1.0000
vn 1.0000 0.0000 0.0000
vn -1.0000 0.0000 0.0000
g windowWallRight_Cube.005_Material.010
usemtl Material.010
s off
f 25/29/7 32/30/7 31/31/7 27/32/7
f 28/33/8 27/34/8 31/35/8 30/36/8
f 29/37/9 26/38/9 28/39/9 30/40/9
f 29/41/10 32/42/10 25/43/10 26/44/10
f 17/45/11 18/46/11 26/47/11 25/29/11
f 20/48/11 19/49/11 27/50/11 28/39/11
f 19/49/11 17/45/11 25/29/11 27/50/11
f 18/46/11 20/48/11 28/39/11 26/47/11
f 24/51/12 22/52/12 29/37/12 30/53/12
f 23/54/12 24/51/12 30/53/12 31/31/12
f 22/52/12 21/55/12 32/56/12 29/37/12
f 21/55/12 23/54/12 31/31/12 32/56/12
o archway_Cube.006
v -0.989713 0.000000 3.702850
v -0.989713 7.000000 3.702850
v -0.989713 0.000000 1.702850
v -0.989713 7.000000 1.702850
v 1.010287 0.000000 3.702850
v 1.010287 7.000000 3.702850
v 1.010287 0.000000 1.702850
v 1.010287 7.000000 1.702850
v 1.010287 7.000000 1.702850
v 1.010287 0.000000 1.702850
v 1.010287 0.000000 3.702850
v 1.010287 7.000000 3.702850
v -0.989713 3.500000 3.702850
v -0.989713 3.500000 1.702850
v 1.010287 3.500000 1.702850
v 1.010287 3.500000 3.702850
v 1.010287 3.500000 1.702850
v 1.010287 3.500000 3.702850
v -0.989713 5.250000 3.702850
v -0.989713 5.250000 1.702850
v 1.010287 5.250000 1.702850
v 1.010287 5.250000 3.702850
v 1.010287 5.250000 1.702850
v 1.010287 5.250000 3.702850
v -0.989713 7.000000 -2.297150
v 1.010287 7.000000 -2.297150
v -0.989713 5.250000 -2.297150
v 1.010287 5.250000 -2.297150
v -0.989713 7.000000 -4.297150
v 1.010287 7.000000 -4.297150
v -0.989713 5.250000 -4.297150
v 1.010287 5.250000 -4.297150
v -0.989713 0.070557 -2.297150
v 1.010287 0.070557 -2.297150
v -0.989713 0.070557 -4.297150
v 1.010287 0.070557 -4.297150
vt 0.666639 0.749959
vt 0.666639 0.999918
vt 0.000082 0.999918
vt 0.000082 0.749959
vt -1.333034 0.999918
vt -1.333034 0.749959
vt 0.000082 0.250041
vt 0.000082 0.000082
vt 0.666639 0.000082
vt 0.666639 0.250041
vt 0.000082 0.250041
vt 0.000082 0.000082
vt 0.666639 0.000082
vt 0.666639 0.250041
vt 0.125000 0.500000
vt 0.375000 0.500000
vt 0.375000 0.750000
vt 0.125000 0.750000
vt 0.625000 0.500000
vt 0.875000 0.500000
vt 0.875000 0.750000
vt 0.625000 0.750000
vt 0.000082 0.500000
vt 0.000082 0.999918
vt 0.000082 0.999918
vt 0.000082 0.500000
vt 0.375000 0.500000
vt 0.375000 0.750000
vt 0.625000 0.750000
vt 0.625000 0.500000
vt 0.666639 0.000082
vt 0.666639 0.250041
vt 0.666639 0.999918
vt 0.666639 0.500000
vt 0.666639 0.500000
vt 0.666639 0.999918
vt 0.000082 0.250041
vt 0.000082 0.999918
vt 0.000082 0.500000
vt 0.666639 0.500000
vt 0.666639 0.999918
vt 0.666640 0.000082
vt 0.666639 0.500000
vt 0.000082 0.000082
vt 0.666640 0.000082
vt 0.000082 0.500000
vt 0.000082 0.000082
vt 0.000082 0.000082
vt 0.666639 0.749959
vt 0.000082 0.749959
vt 0.000073 0.999927
vt 0.000073 0.200044
vt 0.533329 0.200044
vt 0.533329 0.999927
vt 0.999913 0.000087
vt 0.999913 0.749956
vt 0.000087 0.749957
vt 0.000087 0.000087
vt 0.625000 0.000000
vt 0.875000 0.000000
vt 0.999957 0.000043
vt 0.999957 0.187527
vt 0.000043 0.187527
vt 0.000043 0.000043
vt 0.666639 0.749959
vt 0.666639 0.999918
vt 0.000082 0.999918
vt 0.000082 0.749959
vt 0.000082 0.010160
vt 0.666639 0.010160
vt -1.999591 0.999918
vt -1.999591 0.749959
vt 0.533329 0.000073
vt 0.000082 0.749959
vt 0.666639 0.749959
vt 0.666639 0.749959
vt 0.000082 0.749959
vt 0.900921 0.000095
vt 0.900921 0.999905
vt 0.000095 0.999905
vt -1.999591 0.010160
vt -1.333034 0.010160
vt 0.000095 0.000095
vt 0.900922 0.000095
vt 0.900922 0.999905
vt 0.000095 0.999905
vn -1.0000 0.0000 0.0000
vn 1.0000 0.0000 0.0000
vn 0.0000 0.0000 1.0000
vn 0.0000 -1.0000 0.0000
vn 0.0000 1.0000 0.0000
vn 0.0000 0.0000 -1.0000
g archway_Cube.006_Material.003
usemtl Material.003
s off
f 51/57/13 34/58/13 36/59/13 52/60/13
f 52/60/13 36/59/13 57/61/13 59/62/13
f 55/63/14 40/64/14 38/65/14 56/66/14
f 54/67/15 44/68/15 34/69/15 51/70/15
f 35/71/16 42/72/16 43/73/16 33/74/16
f 41/75/17 36/76/17 34/77/17 44/78/17
f 49/79/15 39/80/15 42/81/15 47/82/15
f 39/83/15 37/84/15 43/73/15 42/72/15
f 38/85/15 40/86/15 41/75/15 44/78/15
f 56/66/15 38/65/15 44/87/15 54/88/15
f 37/89/15 50/90/15 48/91/15 43/92/15
f 55/63/15 49/79/15 47/82/15 53/93/15
f 43/94/15 48/95/15 45/96/15 33/97/15
f 39/80/14 49/79/14 50/90/14 37/89/14
f 35/98/18 46/99/18 47/82/18 42/100/18
f 33/101/13 45/96/13 46/102/13 35/103/13
f 40/64/15 55/63/15 53/93/15 41/104/15
f 50/90/15 56/66/15 54/88/15 48/91/15
f 48/95/15 54/67/15 51/70/15 45/96/15
f 49/79/14 55/63/14 56/66/14 50/90/14
f 46/99/18 52/105/18 53/106/18 47/82/18
f 45/96/13 51/57/13 52/60/13 46/102/13
f 57/107/17 58/108/17 62/109/17 61/110/17
f 53/111/16 52/112/16 59/113/16 60/114/16
f 36/76/17 41/75/17 58/115/17 57/116/17
f 41/117/14 53/118/14 60/119/14 58/120/14
f 63/121/18 61/122/18 62/123/18 64/124/18
f 63/121/18 64/124/18 68/125/18 67/126/18
f 59/62/13 57/61/13 61/127/13 63/128/13
f 58/108/14 60/114/14 64/129/14 62/109/14
f 66/130/16 65/131/16 67/132/16 68/133/16
f 60/114/15 59/134/15 65/135/15 66/136/15
f 59/62/13 63/128/13 67/137/13 65/138/13
f 64/139/14 60/140/14 66/141/14 68/142/14
o window1_Cube.001
v -1.000000 1.215902 -5.799015
v -1.000000 5.917215 -5.799015
v -1.000000 1.215902 -11.531725
v -1.000000 5.917215 -11.531725
v 1.000000 1.215902 -5.799015
v 1.000000 5.917215 -5.799015
v 1.000000 1.215902 -11.531725
v 1.000000 5.917215 -11.531725
vt 0.375000 0.000000
vt 0.625000 0.000000
vt 0.625000 0.250000
vt 0.375000 0.250000
vt 0.625000 0.500000
vt 0.375000 0.500000
vt 0.625000 0.750000
vt 0.375000 0.750000
vt 0.625000 1.000000
vt 0.375000 1.000000
vt 0.125000 0.500000
vt 0.125000 0.750000
vt 0.875000 0.500000
vt 0.875000 0.750000
vn -1.0000 0.0000 0.0000
vn 0.0000 0.0000 -1.0000
vn 1.0000 0.0000 0.0000
vn 0.0000 0.0000 1.0000
vn 0.0000 -1.0000 0.0000
vn 0.0000 1.0000 0.0000
g window1_Cube.001_Material.004
usemtl Material.004
s off
f 69/143/19 70/144/19 72/145/19 71/146/19
f 71/146/20 72/145/20 76/147/20 75/148/20
f 75/148/21 76/147/21 74/149/21 73/150/21
f 73/150/22 74/149/22 70/151/22 69/152/22
f 71/153/23 75/148/23 73/150/23 69/154/23
f 76/147/24 72/155/24 70/156/24 74/149/24
o window2_Cube.002
v -1.000000 1.215902 10.925658
v -1.000000 5.917215 10.925658
v -1.000000 1.215902 5.192948
v -1.000000 5.917215 5.192948
v 1.000000 1.215902 10.925658
v 1.000000 5.917215 10.925658
v 1.000000 1.215902 5.192948
v 1.000000 5.917215 5.192948
vt 0.375000 0.000000
vt 0.625000 0.000000
vt 0.625000 0.250000
vt 0.375000 0.250000
vt 0.625000 0.500000
vt 0.375000 0.500000
vt 0.625000 0.750000
vt 0.375000 0.750000
vt 0.625000 1.000000
vt 0.375000 1.000000
vt 0.125000 0.500000
vt 0.125000 0.750000
vt 0.875000 0.500000
vt 0.875000 0.750000
vn -1.0000 0.0000 0.0000
vn 0.0000 0.0000 -1.0000
vn 1.0000 0.0000 0.0000
vn 0.0000 0.0000 1.0000
vn 0.0000 -1.0000 0.0000
vn 0.0000 1.0000 0.0000
g window2_Cube.002_Material.011
usemtl Material.011
s off
f 77/157/25 78/158/25 80/159/25 79/160/25
f 79/160/26 80/159/26 84/161/26 83/162/26
f 83/162/27 84/161/27 82/163/27 81/164/27
f 81/164/28 82/163/28 78/165/28 77/166/28
f 79/167/29 83/162/29 81/164/29 77/168/29
f 84/161/30 80/169/30 78/170/30 82/163/30
