# Blender v2.91.2 OBJ File: 'houseFinal.blend'
# www.blender.org
mtllib houseFinal.mtl
o archWay_Cube.004
v -5.000000 0.000000 1.000000
v -5.000000 2.000000 1.000000
v -5.000000 0.000000 -1.000000
v -5.000000 2.000000 -1.000000
v 5.000000 0.000000 1.000000
v 5.000000 0.000000 -1.000000
v 5.000000 2.000000 -1.000000
v -2.500000 0.000000 -1.000000
v -2.500000 2.000000 1.000000
v -2.500000 2.000000 -1.000000
v -2.500000 0.000000 1.000000
v 2.500000 0.000000 1.000000
v 2.500000 0.000000 -1.000000
v -5.000000 9.000000 1.000000
v -5.000000 9.000000 -1.000000
v -2.500000 9.000000 1.000000
v -2.500000 9.000000 -1.000000
v 2.500000 9.000000 -1.000000
v 5.000000 9.000000 -1.000000
v 5.000000 9.000000 1.000000
v 2.500000 9.000000 1.000000
v -5.000000 11.000000 1.000000
v -5.000000 11.000000 -1.000000
v -2.500000 11.000000 -1.000000
v 2.500000 11.000000 -1.000000
v 5.000000 11.000000 -1.000000
v 5.000000 11.000000 1.000000
v 2.500000 9.000000 -1.000000
v 2.500000 9.000000 1.000000
v 2.500000 11.000000 -1.000000
v -5.000000 0.000000 1.000000
v -5.000000 2.000000 1.000000
v -5.000000 2.000000 -1.000000
v -2.500000 2.000000 -1.000000
v -2.500000 0.000000 1.000000
v -2.500000 2.000000 1.000000
v -4.972174 2.000000 -1.000000
vt 0.000079 0.000079
vt 0.624980 0.000079
vt 0.624980 0.999921
vt 0.000079 0.999921
vt 0.999970 0.000030
vt 0.999970 0.088914
vt 0.000030 0.088912
vt 0.000030 0.000030
vt 0.312500 0.500000
vt 0.375000 0.500000
vt 0.375000 0.750000
vt 0.312500 0.750000
vt 0.000000 0.000000
vt 1.000000 1.000000
vt 0.000000 1.000000
vt 0.999940 0.000060
vt 0.999940 0.355573
vt 0.000060 0.355572
vt 0.000060 0.000060
vt 0.000079 0.999921
vt 0.000079 0.000079
vt 0.624980 0.000079
vt 0.999940 0.355573
vt 0.000060 0.355573
vt 0.000060 0.000060
vt 0.999940 0.000060
vt 0.624980 0.999921
vt 0.000079 0.999921
vt 0.000079 0.000079
vt 0.624980 0.000079
vt 0.000000 0.000000
vt 1.000000 0.000000
vt 1.000000 1.000000
vt 0.000000 1.000000
vt 0.625000 0.937500
vt 0.812500 0.500000
vt 0.812500 0.500000
vt 0.625000 0.937500
vt 0.624980 0.999921
vt 0.000079 0.999921
vt 0.000079 0.000079
vt 0.624980 0.000079
vt 0.625000 0.000000
vt 0.375000 0.000000
vt 0.375000 0.000000
vt 0.625000 0.000000
vt 0.125000 0.750000
vt 0.187500 0.750000
vt 0.187500 0.750000
vt 0.125000 0.750000
vt 0.625000 0.937500
vt 0.625000 0.937500
vt 0.034740 0.000019
vt 0.034740 0.999981
vt 0.000019 0.999981
vt 0.000019 0.000019
vt 0.034740 0.999981
vt 0.000019 0.999981
vt 0.000019 0.000019
vt 0.034740 0.000019
vt 0.000019 0.999981
vt 0.000019 0.000019
vt 0.034740 0.000019
vt 0.034740 0.777767
vt 0.034740 0.999981
vt 0.000000 0.000000
vt 1.000000 0.000000
vt 1.000000 1.000000
vt 0.000000 1.000000
vt 0.625000 0.500000
vn -1.0000 0.0000 0.0000
vn 0.0000 0.0000 -1.0000
vn 0.0000 -1.0000 0.0000
vn 1.0000 0.0000 0.0000
vn 0.0000 1.0000 0.0000
vn 0.0000 0.0000 1.0000
g archWay_Cube.004_Material.005
usemtl Material.005
s off
f 15/1/1 14/2/1 22/3/1 23/4/1
f 8/5/2 3/6/2 15/7/2 17/8/2
f 13/9/3 6/10/3 5/11/3 12/12/3
f 3/13/3 8/5/3 35/14/3 31/15/3
f 35/16/4 8/17/4 17/18/4 16/19/4
f 22/3/5 27/20/5 26/21/5 23/22/5
f 12/23/1 21/24/1 18/25/1 13/26/1
f 14/27/6 20/28/6 27/29/6 22/30/6
f 31/31/1 14/32/1 15/33/1 3/34/1
f 16/35/3 17/36/3 28/37/3 29/38/3
f 23/39/2 26/40/2 19/41/2 15/42/2
f 32/43/6 31/44/6 1/45/6 2/46/6
f 31/47/6 35/48/6 11/49/6 1/50/6
f 35/48/6 36/51/6 9/52/6 11/49/6
f 14/53/6 31/54/6 35/55/6 16/56/6
f 12/57/6 5/58/6 20/59/6 29/60/6
f 13/61/2 18/62/2 19/63/2 7/64/2 6/65/2
f 5/66/4 6/67/4 19/68/4 20/69/4
f 20/28/4 19/41/4 26/70/4 27/29/4
l 4 3
l 10 8
l 15 33
l 9 16
l 34 17
l 23 24
l 25 26
l 24 30
l 33 4
l 34 10
l 4 37
o WindowWall_Cube.007
v 5.000000 0.000000 1.000000
v 5.000000 2.000000 1.000000
v 5.000000 0.000000 -1.000000
v 5.000000 2.000000 -1.000000
v 21.000000 0.000000 1.000000
v 21.000000 2.000000 1.000000
v 21.000000 0.000000 -1.000000
v 21.000000 2.000000 -1.000000
v 13.016911 0.000000 -1.000000
v 13.016911 2.000000 -1.000000
v 13.016911 0.000000 1.000000
v 13.016911 2.000000 1.000000
v 9.008455 0.000000 -1.000000
v 9.008455 2.000000 1.000000
v 9.008455 2.000000 -1.000000
v 9.008455 0.000000 1.000000
v 7.004228 0.000000 -1.000000
v 7.004228 2.000000 1.000000
v 7.004228 2.000000 -1.000000
v 7.004228 0.000000 1.000000
v 17.008455 2.000000 -1.000000
v 17.008455 0.000000 1.000000
v 17.008455 0.000000 -1.000000
v 17.008455 2.000000 1.000000
v 19.004227 2.000000 -1.000000
v 19.004227 0.000000 1.000000
v 19.004227 0.000000 -1.000000
v 19.004227 2.000000 1.000000
v 5.000000 9.000000 1.000000
v 5.000000 9.000000 -1.000000
v 7.004228 9.000000 1.000000
v 7.004228 9.000000 -1.000000
v 5.000000 11.000000 1.000000
v 5.000000 11.000000 -1.000000
v 21.000000 11.000000 -1.000000
v 21.000000 11.000000 1.000000
v 19.004227 9.000000 -1.000000
v 21.000000 9.000000 -1.000000
v 21.000000 9.000000 1.000000
v 19.004227 9.000000 1.000000
v 21.000000 2.000000 -1.000000
v 21.000000 0.000000 -1.000000
vt 0.375000 0.000000
vt 0.625000 0.000000
vt 0.625000 0.250000
vt 0.375000 0.250000
vt 0.375000 0.500000
vt 0.625000 0.500000
vt 0.625000 0.750000
vt 0.375000 0.750000
vt 0.343816 0.500000
vt 0.343816 0.750000
vt 0.000000 0.000000
vt 1.000000 0.000000
vt 1.000000 1.000000
vt 0.000000 1.000000
vt 0.187632 0.500000
vt 0.250264 0.500000
vt 0.250264 0.750000
vt 0.187632 0.750000
vt 0.000000 0.000000
vt 1.000000 0.000000
vt 1.000000 1.000000
vt 0.000000 1.000000
vt 0.156316 0.500000
vt 0.156316 0.750000
vt 0.125000 0.500000
vt 0.125000 0.750000
vt 0.000000 0.000000
vt 1.000000 0.000000
vt 0.000000 1.000000
vt 0.312632 0.500000
vt 0.312632 0.750000
vt 0.000000 0.000000
vt 0.000000 0.000000
vt 0.000000 0.000000
vt 1.750000 0.500000
vt 1.750000 0.750000
vt 0.687368 0.500000
vt 0.749736 0.500000
vt 0.812368 0.500000
vt 0.843684 0.500000
vt 0.843684 0.750000
vt 0.812368 0.750000
vt 0.749736 0.750000
vt 0.687368 0.750000
vt 0.656184 0.750000
vt 0.656184 0.500000
vt 1.000000 1.000000
vt 0.000000 1.000000
vt 1.500000 0.000000
vt 1.500000 0.250000
vt 0.000000 0.000000
vt 1.000000 0.000000
vt 1.000000 1.000000
vt 0.843684 0.500000
vt 0.843684 0.750000
vt 1.750000 0.000000
vt 1.750000 0.250000
vt 0.000082 0.125325
vt 0.000082 0.000082
vt 0.666639 0.000083
vt 0.666639 0.125326
vt 0.666639 0.250569
vt 0.666639 0.501057
vt 0.666639 0.750487
vt 0.666639 0.875203
vt 0.666639 0.999918
vt 0.000082 0.999918
vt 0.000082 0.875203
vt 0.000082 0.750488
vt 0.000082 0.501057
vt 0.000082 0.250569
vt 1.500000 0.500000
vt 1.500000 0.750000
vt 0.000000 0.000000
vt 0.000000 0.000000
vt 0.656184 0.750000
vt 0.656184 0.500000
vt 0.000000 0.000000
vt 1.000000 0.000000
vt 1.000000 1.000000
vt 0.000000 1.000000
vt 0.625000 0.468816
vt 1.500000 0.468816
vt 0.375000 0.500000
vt 0.625000 0.500000
vt 0.000000 0.000000
vt 1.000000 1.000000
vt 0.000000 1.000000
vn -1.0000 0.0000 0.0000
vn 1.0000 0.0000 0.0000
vn 0.0000 -1.0000 0.0000
vn 0.0000 0.0000 -1.0000
vn 0.0000 0.0000 1.0000
vn 0.0000 1.0000 0.0000
g WindowWall_Cube.007_Material.003
usemtl Material.003
s off
f 38/71/7 39/72/7 41/73/7 40/74/7
f 44/75/8 45/76/8 43/77/8 42/78/8
f 64/79/9 44/75/9 42/78/9 63/80/9
f 56/81/10 41/82/10 67/83/10 69/84/10
f 50/85/9 46/86/9 48/87/9 53/88/9
f 76/89/11 73/90/11 70/91/11 66/92/11
f 54/93/9 50/85/9 53/88/9 57/94/9
f 40/95/9 54/93/9 57/94/9 38/96/9
f 72/97/12 71/98/12 70/91/12 73/99/12
f 46/86/9 60/100/9 59/101/9 48/87/9
f 76/89/9 66/102/9 67/103/9 75/104/9
f 43/77/8 45/76/8 72/105/8 73/106/8
f 58/107/12 47/108/12 52/109/12 56/110/12 55/111/12 51/112/12 49/113/12 61/114/12 65/115/12 62/116/12
f 60/100/9 64/79/9 63/80/9 59/101/9
f 67/103/10 71/98/10 72/117/10 75/118/10
f 41/73/7 39/72/7 66/119/7 67/120/7
f 39/121/11 55/122/11 68/123/11 66/92/11
f 55/111/8 56/110/8 69/124/8 68/125/8
f 67/120/7 66/119/7 70/126/7 71/127/7
f 55/128/11 39/129/11 38/130/11 57/131/11 53/132/11 48/133/11 59/134/11 63/135/11 42/136/11 43/137/11 65/138/11 61/139/11 49/140/11 51/141/11
f 43/77/8 45/76/8 75/142/8 76/143/8
f 74/144/12 77/145/12 76/89/12 75/104/12
f 62/116/7 65/115/7 77/146/7 74/147/7
f 65/148/11 43/149/11 76/150/11 77/151/11
f 45/76/10 62/152/10 74/153/10 75/142/10
f 45/76/11 44/75/11 79/154/11 78/155/11
f 44/75/11 64/79/11 79/154/11
f 62/152/11 45/76/11 78/155/11
f 40/156/10 41/82/10 78/157/10 79/158/10
o WindowWall.001_Cube.008
v -21.000000 0.000000 1.000000
v -21.000000 2.000000 1.000000
v -21.000000 0.000000 -1.000000
v -21.000000 2.000000 -1.000000
v -5.000000 0.000000 1.000000
v -5.000000 2.000000 1.000000
v -5.000000 0.000000 -1.000000
v -5.000000 2.000000 -1.000000
v -12.983089 0.000000 -1.000000
v -12.983089 2.000000 -1.000000
v -12.983089 0.000000 1.000000
v -12.983089 2.000000 1.000000
v -16.991545 0.000000 -1.000000
v -16.991545 2.000000 1.000000
v -16.991545 2.000000 -1.000000
v -16.991545 0.000000 1.000000
v -18.995773 0.000000 -1.000000
v -18.995773 2.000000 1.000000
v -18.995773 2.000000 -1.000000
v -18.995773 0.000000 1.000000
v -8.991545 2.000000 -1.000000
v -8.991545 0.000000 1.000000
v -8.991545 0.000000 -1.000000
v -8.991545 2.000000 1.000000
v -6.995772 2.000000 -1.000000
v -6.995772 0.000000 1.000000
v -6.995772 0.000000 -1.000000
v -6.995772 2.000000 1.000000
v -21.000000 9.000000 1.000000
v -21.000000 9.000000 -1.000000
v -18.995773 9.000000 1.000000
v -18.995773 9.000000 -1.000000
v -21.000000 11.000000 1.000000
v -21.000000 11.000000 -1.000000
v -5.000000 11.000000 -1.000000
v -5.000000 11.000000 1.000000
v -6.995772 9.000000 -1.000000
v -5.000000 9.000000 -1.000000
v -5.000000 9.000000 1.000000
v -6.995772 9.000000 1.000000
v -5.000000 2.000000 -1.000000
v -5.000000 0.000000 -1.000000
vt 0.375000 0.000000
vt 0.625000 0.000000
vt 0.625000 0.250000
vt 0.375000 0.250000
vt 0.375000 0.500000
vt 0.625000 0.500000
vt 0.625000 0.750000
vt 0.375000 0.750000
vt 0.343816 0.500000
vt 0.343816 0.750000
vt 0.625000 0.281316
vt 1.500000 0.250000
vt 1.500000 0.281316
vt 0.187632 0.500000
vt 0.250264 0.500000
vt 0.250264 0.750000
vt 0.187632 0.750000
vt 0.000000 0.000000
vt 1.000000 0.000000
vt 1.000000 1.000000
vt 0.000000 1.000000
vt 0.156316 0.500000
vt 0.156316 0.750000
vt 0.125000 0.500000
vt 0.125000 0.750000
vt 0.000000 0.000000
vt 1.000000 0.000000
vt 0.000000 1.000000
vt 0.312632 0.500000
vt 0.312632 0.750000
vt 0.000000 0.000000
vt 0.000000 0.000000
vt 0.000000 0.000000
vt 1.750000 0.500000
vt 1.750000 0.750000
vt 0.687368 0.500000
vt 0.749736 0.500000
vt 0.812368 0.500000
vt 0.843684 0.500000
vt 0.843684 0.750000
vt 0.812368 0.750000
vt 0.749736 0.750000
vt 0.687368 0.750000
vt 0.656184 0.750000
vt 0.656184 0.500000
vt 1.000000 1.000000
vt 0.000000 1.000000
vt 1.500000 0.000000
vt 0.000000 0.000000
vt 1.000000 0.000000
vt 1.000000 1.000000
vt 0.843684 0.500000
vt 0.843684 0.750000
vt 1.750000 0.000000
vt 1.750000 0.250000
vt 0.000082 0.125325
vt 0.000082 0.000082
vt 0.666639 0.000083
vt 0.666639 0.125326
vt 0.666639 0.250569
vt 0.666639 0.501057
vt 0.666639 0.750487
vt 0.666639 0.875203
vt 0.666639 0.999918
vt 0.000082 0.999918
vt 0.000082 0.875203
vt 0.000082 0.750488
vt 0.000082 0.501057
vt 0.000082 0.250569
vt 1.500000 0.500000
vt 1.500000 0.750000
vt 0.000000 0.000000
vt 0.000000 0.000000
vt 0.656184 0.750000
vt 0.656184 0.500000
vt 0.000000 0.000000
vt 1.000000 0.000000
vt 1.000000 1.000000
vt 0.000000 1.000000
vt 0.000000 0.000000
vt 1.000000 0.000000
vt 1.000000 1.000000
vt 0.375000 0.500000
vt 0.625000 0.500000
vt 0.625000 0.468816
vt 0.000000 0.000000
vt 1.000000 0.000000
vt 1.000000 1.000000
vt 0.000000 1.000000
vn -1.0000 0.0000 0.0000
vn 1.0000 0.0000 0.0000
vn 0.0000 -1.0000 0.0000
vn 0.0000 0.0000 -1.0000
vn 0.0000 0.0000 1.0000
vn 0.0000 1.0000 0.0000
g WindowWall.001_Cube.008_Material.003
usemtl Material.003
s off
f 80/159/13 81/160/13 83/161/13 82/162/13
f 86/163/14 87/164/14 85/165/14 84/166/14
f 106/167/15 86/163/15 84/166/15 105/168/15
f 98/169/16 83/161/16 109/170/16 111/171/16
f 92/172/15 88/173/15 90/174/15 95/175/15
f 118/176/17 115/177/17 112/178/17 108/179/17
f 96/180/15 92/172/15 95/175/15 99/181/15
f 82/182/15 96/180/15 99/181/15 80/183/15
f 114/184/18 113/185/18 112/178/18 115/186/18
f 88/173/15 102/187/15 101/188/15 90/174/15
f 118/176/15 108/189/15 109/190/15 117/191/15
f 85/165/14 87/164/14 114/192/14 115/193/14
f 100/194/18 89/195/18 94/196/18 98/197/18 97/198/18 93/199/18 91/200/18 103/201/18 107/202/18 104/203/18
f 102/187/15 106/167/15 105/168/15 101/188/15
f 109/190/16 113/185/16 114/204/16 117/205/16
f 83/161/13 81/160/13 108/206/13 109/170/13
f 81/207/17 97/208/17 110/209/17 108/179/17
f 97/198/14 98/197/14 111/210/14 110/211/14
f 109/170/13 108/206/13 112/212/13 113/213/13
f 97/214/17 81/215/17 80/216/17 99/217/17 95/218/17 90/219/17 101/220/17 105/221/17 84/222/17 85/223/17 107/224/17 103/225/17 91/226/17 93/227/17
f 85/165/14 87/164/14 117/228/14 118/229/14
f 116/230/18 119/231/18 118/176/18 117/191/18
f 104/203/13 107/202/13 119/232/13 116/233/13
f 107/234/17 85/235/17 118/236/17 119/237/17
f 87/238/16 104/239/16 116/240/16 117/205/16
f 87/164/17 86/163/17 121/241/17 120/242/17
f 86/163/17 106/167/17 121/241/17
f 104/243/17 87/164/17 120/242/17
f 82/244/16 83/245/16 120/246/16 121/247/16
o Window1_Cube.010
v 7.000000 2.000000 0.500000
v 7.000000 4.000000 0.500000
v 7.000000 2.000000 -0.500000
v 7.000000 4.000000 -0.500000
v 19.000000 2.000000 0.500000
v 19.000000 4.000000 0.500000
v 19.000000 2.000000 -0.500000
v 19.000000 4.000000 -0.500000
v 7.000000 9.000000 0.500000
v 7.000000 9.000000 -0.500000
v 19.000000 9.000000 -0.500000
v 19.000000 9.000000 0.500000
vt 0.375000 0.000000
vt 0.625000 0.000000
vt 0.625000 0.250000
vt 0.375000 0.250000
vt 0.375000 0.500000
vt 0.625000 0.500000
vt 0.625000 0.750000
vt 0.375000 0.750000
vt 0.125000 0.500000
vt 0.125000 0.750000
vt 1.250000 0.500000
vt 1.250000 0.750000
vt 0.625000 0.500000
vt 0.875000 0.500000
vt 0.875000 0.750000
vt 0.625000 0.750000
vt 1.250000 0.000000
vt 1.250000 0.250000
vn -1.0000 0.0000 0.0000
vn 1.0000 0.0000 0.0000
vn 0.0000 -1.0000 0.0000
vn 0.0000 1.0000 0.0000
vn 0.0000 0.0000 -1.0000
vn 0.0000 0.0000 1.0000
g Window1_Cube.010_Material.007
usemtl Material.007
s off
f 122/248/19 123/249/19 125/250/19 124/251/19
f 128/252/20 129/253/20 127/254/20 126/255/20
f 124/256/21 128/252/21 126/255/21 122/257/21
f 127/254/20 129/253/20 132/258/20 133/259/20
f 132/260/22 131/261/22 130/262/22 133/263/22
f 125/250/19 123/249/19 130/264/19 131/265/19
f 128/252/23 124/256/23 131/261/23 132/260/23
f 130/262/24 122/257/24 126/255/24 133/263/24
o leftWall_Cube.011
v -21.000000 0.000000 -1.000000
v -21.000000 2.000000 -1.000000
v -21.000000 0.000000 -37.000000
v -21.000000 2.000000 -37.000000
v -19.000000 0.000000 -1.000000
v -19.000000 2.000000 -1.000000
v -19.000000 0.000000 -37.000000
v -19.000000 2.000000 -37.000000
v -21.000000 11.000000 -1.000000
v -21.000000 11.000000 -37.000000
v -19.000000 11.000000 -37.000000
v -19.000000 11.000000 -1.000000
vt 0.375000 0.250000
vt 0.625000 0.250000
vt 0.625000 0.500000
vt 0.375000 0.500000
vt 0.375000 0.750000
vt 0.625000 0.750000
vt 0.625000 1.000000
vt 0.375000 1.000000
vt 0.000000 0.000000
vt 1.000000 0.000000
vt 1.000000 1.000000
vt 0.000000 1.000000
vt 1.750000 0.250000
vt 1.750000 0.500000
vt 0.000000 0.000000
vt 1.000000 0.000000
vt 1.000000 1.000000
vt 0.000000 1.000000
vt 0.000000 0.000000
vt 1.000000 1.000000
vt 1.750000 0.750000
vt 1.750000 1.000000
vt 0.000000 0.818182
vt 0.000000 0.000000
vt 0.121212 0.000000
vt 0.121212 0.818182
vt 0.121212 1.000000
vn 0.0000 0.0000 -1.0000
vn 0.0000 0.0000 1.0000
vn 0.0000 -1.0000 0.0000
vn 0.0000 1.0000 0.0000
vn 1.0000 0.0000 0.0000
vn -1.0000 0.0000 0.0000
g leftWall_Cube.011_Material.003
usemtl Material.003
s off
f 136/266/25 137/267/25 141/268/25 140/269/25
f 138/270/26 139/271/26 135/272/26 134/273/26
f 136/274/27 140/275/27 138/276/27 134/277/27
f 141/268/25 137/267/25 143/278/25 144/279/25
f 144/280/28 143/281/28 142/282/28 145/283/28
f 138/284/29 140/275/29 144/285/29 145/283/29
f 135/272/26 139/271/26 145/286/26 142/287/26
f 134/277/30 135/288/30 142/289/30 143/290/30 137/291/30 136/292/30
o Window2_Cube.012
v -19.000000 2.000000 0.500000
v -19.000000 4.000000 0.500000
v -19.000000 2.000000 -0.500000
v -19.000000 4.000000 -0.500000
v -7.000000 2.000000 0.500000
v -7.000000 4.000000 0.500000
v -7.000000 2.000000 -0.500000
v -7.000000 4.000000 -0.500000
v -19.000000 9.000000 0.500000
v -19.000000 9.000000 -0.500000
v -7.000000 9.000000 -0.500000
v -7.000000 9.000000 0.500000
vt 0.375000 0.000000
vt 0.625000 0.000000
vt 0.625000 0.250000
vt 0.375000 0.250000
vt 0.375000 0.500000
vt 0.625000 0.500000
vt 0.625000 0.750000
vt 0.375000 0.750000
vt 0.125000 0.500000
vt 0.125000 0.750000
vt 1.250000 0.500000
vt 1.250000 0.750000
vt 0.625000 0.500000
vt 0.875000 0.500000
vt 0.875000 0.750000
vt 0.625000 0.750000
vt 1.250000 0.000000
vt 1.250000 0.250000
vn -1.0000 0.0000 0.0000
vn 1.0000 0.0000 0.0000
vn 0.0000 -1.0000 0.0000
vn 0.0000 1.0000 0.0000
vn 0.0000 0.0000 -1.0000
vn 0.0000 0.0000 1.0000
g Window2_Cube.012_Material.012
usemtl Material.012
s off
f 146/293/31 147/294/31 149/295/31 148/296/31
f 152/297/32 153/298/32 151/299/32 150/300/32
f 148/301/33 152/297/33 150/300/33 146/302/33
f 151/299/32 153/298/32 156/303/32 157/304/32
f 156/305/34 155/306/34 154/307/34 157/308/34
f 149/295/31 147/294/31 154/309/31 155/310/31
f 152/297/35 148/301/35 155/306/35 156/305/35
f 154/307/36 146/302/36 150/300/36 157/308/36
o RightWall_Cube.013
v 19.000000 0.000000 -1.000000
v 19.000000 2.000000 -1.000000
v 19.000000 0.000000 -37.000000
v 19.000000 2.000000 -37.000000
v 21.000000 0.000000 -1.000000
v 21.000000 2.000000 -1.000000
v 21.000000 0.000000 -37.000000
v 21.000000 2.000000 -37.000000
v 19.000000 11.000000 -1.000000
v 19.000000 11.000000 -37.000000
v 21.000000 11.000000 -37.000000
v 21.000000 11.000000 -1.000000
vt 0.375000 0.250000
vt 0.625000 0.250000
vt 0.625000 0.500000
vt 0.375000 0.500000
vt 0.375000 0.750000
vt 0.625000 0.750000
vt 0.625000 1.000000
vt 0.375000 1.000000
vt 0.125000 0.500000
vt 0.125000 0.750000
vt 1.750000 0.250000
vt 1.750000 0.500000
vt 0.000000 0.000000
vt 0.666667 0.000000
vt 0.666667 1.000000
vt 0.000000 1.000000
vt 0.000000 0.000000
vt 1.000000 0.000000
vt 1.000000 1.000000
vt 1.750000 0.750000
vt 1.750000 1.000000
vt 0.000000 1.000000
vt 0.000000 0.818182
vt 0.000000 0.000000
vt 0.121212 0.000000
vt 0.121212 0.818182
vt 0.121212 1.000000
vn 0.0000 0.0000 -1.0000
vn 0.0000 0.0000 1.0000
vn 0.0000 -1.0000 0.0000
vn 0.0000 1.0000 0.0000
vn 1.0000 0.0000 0.0000
vn -1.0000 0.0000 0.0000
g RightWall_Cube.013_Material.003
usemtl Material.003
s off
f 160/311/37 161/312/37 165/313/37 164/314/37
f 162/315/38 163/316/38 159/317/38 158/318/38
f 160/319/39 164/314/39 162/315/39 158/320/39
f 165/313/37 161/312/37 167/321/37 168/322/37
f 168/323/40 167/324/40 166/325/40 169/326/40
f 162/327/41 164/328/41 168/329/41 169/326/41
f 159/317/38 163/316/38 169/330/38 166/331/38
f 158/332/42 159/333/42 166/334/42 167/335/42 161/336/42 160/337/42
o backwall_Cube.014
v 21.000000 0.000000 -37.000000
v 21.000000 2.000000 -37.000000
v -21.000000 0.000000 -37.000000
v -21.000000 2.000000 -37.000000
v 21.000000 0.000000 -39.000000
v 21.000000 2.000000 -39.000000
v -21.000000 0.000000 -39.000000
v -21.000000 2.000000 -39.000000
v 21.000000 11.000000 -37.000000
v -21.000000 11.000000 -37.000000
v -21.000000 11.000000 -39.000000
v 21.000000 11.000000 -39.000000
vt 0.000000 1.000000
vt 0.000000 0.818182
vt 0.000000 0.000000
vt 0.121212 0.000000
vt 0.121212 0.818182
vt 0.121212 1.000000
vt 0.125000 0.500000
vt 0.375000 0.500000
vt 0.375000 0.750000
vt 0.125000 0.750000
vt 0.000000 0.000000
vt 0.666667 0.000000
vt 0.666667 1.000000
vt 0.000000 1.000000
vt 0.000000 0.000000
vt 1.000000 0.000000
vt 1.000000 1.000000
vt 0.375000 0.000000
vt 0.625000 0.000000
vt 1.750000 0.000000
vt 1.750000 0.250000
vt 0.625000 0.250000
vt 0.375000 0.250000
vt 0.000000 1.000000
vt 0.000000 0.818182
vt 0.000000 0.000000
vt 0.121212 0.000000
vt 0.121212 0.818182
vt 0.121212 1.000000
vn -1.0000 0.0000 0.0000
vn 0.0000 -1.0000 0.0000
vn 0.0000 1.0000 0.0000
vn 0.0000 0.0000 -1.0000
vn 0.0000 0.0000 1.0000
vn 1.0000 0.0000 0.0000
g backwall_Cube.014_Material.003
usemtl Material.003
s off
f 172/338/43 173/339/43 179/340/43 180/341/43 177/342/43 176/343/43
f 172/344/44 176/345/44 174/346/44 170/347/44
f 180/348/45 179/349/45 178/350/45 181/351/45
f 174/352/46 176/353/46 180/354/46 181/351/46
f 170/355/47 171/356/47 178/357/47 179/358/47 173/359/47 172/360/47
f 174/361/48 175/362/48 181/363/48 178/364/48 171/365/48 170/366/48
