# Blender v2.91.2 OBJ File: 'houseFinal.blend'
# www.blender.org
mtllib houseFinal.mtl
o archWay_Cube.004
v -5.000000 0.000000 1.000000
v -5.000000 2.000000 1.000000
v -5.000000 0.000000 -1.000000
v -5.000000 2.000000 -1.000000
v 5.000000 0.000000 1.000000
v 5.000000 0.000000 -1.000000
v 5.000000 2.000000 -1.000000
v -2.500000 0.000000 -1.000000
v -2.500000 2.000000 1.000000
v -2.500000 2.000000 -1.000000
v -2.500000 0.000000 1.000000
v 2.500000 0.000000 1.000000
v 2.500000 0.000000 -1.000000
v -5.000000 9.000000 1.000000
v -5.000000 9.000000 -1.000000
v -2.500000 9.000000 1.000000
v -2.500000 9.000000 -1.000000
v 2.500000 9.000000 -1.000000
v 5.000000 9.000000 -1.000000
v 5.000000 9.000000 1.000000
v 2.500000 9.000000 1.000000
v -5.000000 11.000000 1.000000
v -5.000000 11.000000 -1.000000
v -2.500000 11.000000 -1.000000
v 2.500000 11.000000 -1.000000
v 5.000000 11.000000 -1.000000
v 5.000000 11.000000 1.000000
v 2.500000 9.000000 -1.000000
v 2.500000 9.000000 1.000000
v 2.500000 11.000000 -1.000000
v -5.000000 0.000000 1.000000
v -5.000000 2.000000 1.000000
v -5.000000 2.000000 -1.000000
v -2.500000 2.000000 -1.000000
v -2.500000 0.000000 1.000000
v -2.500000 2.000000 1.000000
v -4.972174 2.000000 -1.000000
vt 0.000079 0.000079
vt 0.624980 0.000079
vt 0.624980 0.999921
vt 0.000079 0.999921
vt 0.000000 0.000000
vt 1.000000 0.000000
vt 1.000000 1.000000
vt 0.000000 1.000000
vt 0.312500 0.500000
vt 0.375000 0.500000
vt 0.375000 0.750000
vt 0.312500 0.750000
vt 0.000000 0.000000
vt 1.000000 0.000000
vt 1.000000 1.000000
vt 0.000000 1.000000
vt 0.000000 0.000000
vt 1.000000 1.000000
vt 0.000000 1.000000
vt 0.000046 0.333348
vt 0.208360 0.333349
vt 0.208360 0.666651
vt 0.000046 0.666651
vt 0.000000 0.000000
vt 1.000000 0.000000
vt 1.000000 1.000000
vt 0.000000 1.000000
vt 0.000046 0.000046
vt 0.208360 0.000046
vt 0.000000 0.000000
vt 1.000000 0.000000
vt 0.000000 1.000000
vt 0.625000 0.937500
vt 0.812500 0.500000
vt 0.812500 0.500000
vt 0.625000 0.937500
vt 0.208360 0.999954
vt 0.000046 0.999954
vt 0.625000 0.000000
vt 0.375000 0.000000
vt 0.375000 0.000000
vt 0.625000 0.000000
vt 0.125000 0.750000
vt 0.187500 0.750000
vt 0.187500 0.750000
vt 0.125000 0.750000
vt 0.625000 0.937500
vt 0.625000 0.937500
vt 0.000000 0.000000
vt 1.000000 0.000000
vt 1.000000 1.000000
vt 0.000000 1.000000
vt 0.500000 1.000000
vt 0.975528 0.654508
vt 0.793893 0.095491
vt 0.206107 0.095492
vt 0.024472 0.654509
vt 0.000000 0.000000
vt 1.000000 0.000000
vt 1.000000 1.000000
vt 0.000000 1.000000
vt 0.000079 0.999921
vt 0.000079 0.000079
vt 0.625000 0.500000
vt 0.000079 0.000079
vn -1.0000 0.0000 0.0000
vn 0.0000 0.0000 -1.0000
vn 0.0000 -1.0000 0.0000
vn 1.0000 0.0000 0.0000
vn 0.0000 1.0000 0.0000
vn 0.0000 0.0000 1.0000
g archWay_Cube.004_Material.005
usemtl Material.005
s off
f 15/1/1 14/2/1 22/3/1 23/4/1
f 8/5/2 3/6/2 15/7/2 17/8/2
f 13/9/3 6/10/3 5/11/3 12/12/3
f 3/13/3 8/14/3 35/15/3 31/16/3
f 35/17/4 8/14/4 17/18/4 16/19/4
f 22/20/5 27/21/5 26/22/5 23/23/5
f 12/24/1 21/25/1 18/26/1 13/27/1
f 14/28/6 20/29/6 27/21/6 22/20/6
f 31/30/1 14/31/1 15/7/1 3/32/1
f 16/33/3 17/34/3 28/35/3 29/36/3
f 23/23/2 26/22/2 19/37/2 15/38/2
f 32/39/6 31/40/6 1/41/6 2/42/6
f 31/43/6 35/44/6 11/45/6 1/46/6
f 35/44/6 36/47/6 9/48/6 11/45/6
f 14/28/6 31/30/6 35/17/6 16/49/6
f 12/24/6 5/50/6 20/51/6 29/52/6
f 13/53/2 18/54/2 19/55/2 7/56/2 6/57/2
f 5/58/4 6/59/4 19/60/4 20/61/4
f 20/62/4 19/63/4 26/64/4 27/65/4
l 4 3
l 10 8
l 15 33
l 9 16
l 34 17
l 23 24
l 25 26
l 24 30
l 33 4
l 34 10
l 4 37
o WindowWall_Cube.007
v 5.000000 0.000000 1.000000
v 5.000000 2.000000 1.000000
v 5.000000 0.000000 -1.000000
v 5.000000 2.000000 -1.000000
v 21.000000 0.000000 1.000000
v 21.000000 2.000000 1.000000
v 21.000000 0.000000 -1.000000
v 21.000000 2.000000 -1.000000
v 13.016911 0.000000 -1.000000
v 13.016911 2.000000 -1.000000
v 13.016911 0.000000 1.000000
v 13.016911 2.000000 1.000000
v 9.008455 0.000000 -1.000000
v 9.008455 2.000000 1.000000
v 9.008455 2.000000 -1.000000
v 9.008455 0.000000 1.000000
v 7.004228 0.000000 -1.000000
v 7.004228 2.000000 1.000000
v 7.004228 2.000000 -1.000000
v 7.004228 0.000000 1.000000
v 17.008455 2.000000 -1.000000
v 17.008455 0.000000 1.000000
v 17.008455 0.000000 -1.000000
v 17.008455 2.000000 1.000000
v 19.004227 2.000000 -1.000000
v 19.004227 0.000000 1.000000
v 19.004227 0.000000 -1.000000
v 19.004227 2.000000 1.000000
v 5.000000 9.000000 1.000000
v 5.000000 9.000000 -1.000000
v 7.004228 9.000000 1.000000
v 7.004228 9.000000 -1.000000
v 5.000000 11.000000 1.000000
v 5.000000 11.000000 -1.000000
v 21.000000 11.000000 -1.000000
v 21.000000 11.000000 1.000000
v 19.004227 9.000000 -1.000000
v 21.000000 9.000000 -1.000000
v 21.000000 9.000000 1.000000
v 19.004227 9.000000 1.000000
v 21.000000 2.000000 -1.000000
v 21.000000 0.000000 -1.000000
vt 0.375000 0.000000
vt 0.625000 0.000000
vt 0.625000 0.250000
vt 0.375000 0.250000
vt 0.375000 0.500000
vt 0.625000 0.500000
vt 0.625000 0.750000
vt 0.375000 0.750000
vt 0.343816 0.500000
vt 0.343816 0.750000
vt 0.625000 0.281316
vt 1.500000 0.250000
vt 1.500000 0.281316
vt 0.187632 0.500000
vt 0.250264 0.500000
vt 0.250264 0.750000
vt 0.187632 0.750000
vt 0.000000 0.000000
vt 1.750000 0.750000
vt 1.750000 0.000000
vt 1.500000 0.000000
vt 0.156316 0.500000
vt 0.156316 0.750000
vt 0.125000 0.500000
vt 0.125000 0.750000
vt 1.750000 0.500000
vt 1.750000 0.250000
vt 0.312632 0.500000
vt 0.312632 0.750000
vt 0.000000 0.000000
vt 0.000000 0.000000
vt 0.000000 0.000000
vt 0.687368 0.500000
vt 0.749736 0.500000
vt 0.812368 0.500000
vt 0.843684 0.500000
vt 0.843684 0.750000
vt 0.812368 0.750000
vt 0.749736 0.750000
vt 0.687368 0.750000
vt 0.656184 0.750000
vt 0.656184 0.500000
vt 0.000000 0.000000
vt 0.625000 1.000000
vt 0.625000 0.968684
vt 1.500000 0.968684
vt 1.500000 1.000000
vt 0.843684 0.500000
vt 0.843684 0.750000
vt 0.375000 1.000000
vt 0.375000 0.968684
vt 0.375000 0.937368
vt 0.375000 0.874736
vt 0.375000 0.812368
vt 0.375000 0.781184
vt 0.625000 0.781184
vt 0.625000 0.812368
vt 0.625000 0.874736
vt 0.625000 0.937368
vt 1.500000 0.500000
vt 1.500000 0.750000
vt 0.000000 0.000000
vt 0.000000 0.000000
vt 0.656184 0.750000
vt 0.656184 0.500000
vt 1.500000 0.781184
vt 0.625000 0.468816
vt 1.500000 0.468816
vt 0.375000 0.500000
vt 0.625000 0.500000
vn -1.0000 0.0000 0.0000
vn 1.0000 0.0000 0.0000
vn 0.0000 -1.0000 0.0000
vn 0.0000 0.0000 -1.0000
vn 0.0000 0.0000 1.0000
vn 0.0000 1.0000 0.0000
g WindowWall_Cube.007_None
usemtl None
s off
f 38/66/7 39/67/7 41/68/7 40/69/7
f 44/70/8 45/71/8 43/72/8 42/73/8
f 64/74/9 44/70/9 42/73/9 63/75/9
f 56/76/10 41/68/10 67/77/10 69/78/10
f 50/79/9 46/80/9 48/81/9 53/82/9
f 76/83/11 73/84/11 70/85/11 66/86/11
f 54/87/9 50/79/9 53/82/9 57/88/9
f 40/89/9 54/87/9 57/88/9 38/90/9
f 72/91/12 71/92/12 70/85/12 73/84/12
f 46/80/9 60/93/9 59/94/9 48/81/9
f 76/83/9 66/95/9 67/96/9 75/97/9
f 43/72/8 45/71/8 72/91/8 73/84/8
f 58/98/12 47/99/12 52/100/12 56/101/12 55/102/12 51/103/12 49/104/12 61/105/12 65/106/12 62/107/12
f 60/93/9 64/74/9 63/75/9 59/94/9
f 67/77/10 71/92/10 72/108/10 75/97/10
f 41/68/7 39/67/7 66/86/7 67/77/7
f 39/109/11 55/110/11 68/111/11 66/112/11
f 55/102/8 56/101/8 69/113/8 68/114/8
f 67/77/7 66/86/7 70/85/7 71/92/7
f 55/110/11 39/109/11 38/115/11 57/116/11 53/117/11 48/118/11 59/119/11 63/120/11 42/73/11 43/72/11 65/121/11 61/122/11 49/123/11 51/124/11
f 43/72/8 45/71/8 75/125/8 76/126/8
f 74/127/12 77/128/12 76/83/12 75/97/12
f 62/107/7 65/106/7 77/129/7 74/130/7
f 65/121/11 43/72/11 76/126/11 77/131/11
f 45/71/10 62/132/10 74/133/10 75/125/10
f 45/71/11 44/70/11 79/134/11 78/135/11
f 44/70/11 64/74/11 79/134/11
f 62/132/11 45/71/11 78/135/11
f 40/69/10 41/68/10 78/135/10 79/134/10
o WindowWall.001_Cube.008
v -21.000000 0.000000 1.000000
v -21.000000 2.000000 1.000000
v -21.000000 0.000000 -1.000000
v -21.000000 2.000000 -1.000000
v -5.000000 0.000000 1.000000
v -5.000000 2.000000 1.000000
v -5.000000 0.000000 -1.000000
v -5.000000 2.000000 -1.000000
v -12.983089 0.000000 -1.000000
v -12.983089 2.000000 -1.000000
v -12.983089 0.000000 1.000000
v -12.983089 2.000000 1.000000
v -16.991545 0.000000 -1.000000
v -16.991545 2.000000 1.000000
v -16.991545 2.000000 -1.000000
v -16.991545 0.000000 1.000000
v -18.995773 0.000000 -1.000000
v -18.995773 2.000000 1.000000
v -18.995773 2.000000 -1.000000
v -18.995773 0.000000 1.000000
v -8.991545 2.000000 -1.000000
v -8.991545 0.000000 1.000000
v -8.991545 0.000000 -1.000000
v -8.991545 2.000000 1.000000
v -6.995772 2.000000 -1.000000
v -6.995772 0.000000 1.000000
v -6.995772 0.000000 -1.000000
v -6.995772 2.000000 1.000000
v -21.000000 9.000000 1.000000
v -21.000000 9.000000 -1.000000
v -18.995773 9.000000 1.000000
v -18.995773 9.000000 -1.000000
v -21.000000 11.000000 1.000000
v -21.000000 11.000000 -1.000000
v -5.000000 11.000000 -1.000000
v -5.000000 11.000000 1.000000
v -6.995772 9.000000 -1.000000
v -5.000000 9.000000 -1.000000
v -5.000000 9.000000 1.000000
v -6.995772 9.000000 1.000000
v -5.000000 2.000000 -1.000000
v -5.000000 0.000000 -1.000000
vt 0.375000 0.000000
vt 0.625000 0.000000
vt 0.625000 0.250000
vt 0.375000 0.250000
vt 0.375000 0.500000
vt 0.625000 0.500000
vt 0.625000 0.750000
vt 0.375000 0.750000
vt 0.343816 0.500000
vt 0.343816 0.750000
vt 0.625000 0.281316
vt 1.500000 0.250000
vt 1.500000 0.281316
vt 0.187632 0.500000
vt 0.250264 0.500000
vt 0.250264 0.750000
vt 0.187632 0.750000
vt 0.000000 0.000000
vt 1.750000 0.750000
vt 1.750000 0.000000
vt 1.500000 0.000000
vt 0.156316 0.500000
vt 0.156316 0.750000
vt 0.125000 0.500000
vt 0.125000 0.750000
vt 1.750000 0.500000
vt 1.750000 0.250000
vt 0.312632 0.500000
vt 0.312632 0.750000
vt 0.000000 0.000000
vt 0.000000 0.000000
vt 0.000000 0.000000
vt 0.687368 0.500000
vt 0.749736 0.500000
vt 0.812368 0.500000
vt 0.843684 0.500000
vt 0.843684 0.750000
vt 0.812368 0.750000
vt 0.749736 0.750000
vt 0.687368 0.750000
vt 0.656184 0.750000
vt 0.656184 0.500000
vt 0.000000 0.000000
vt 0.625000 1.000000
vt 0.625000 0.968684
vt 1.500000 0.968684
vt 1.500000 1.000000
vt 0.843684 0.500000
vt 0.843684 0.750000
vt 0.375000 1.000000
vt 0.375000 0.968684
vt 0.375000 0.937368
vt 0.375000 0.874736
vt 0.375000 0.812368
vt 0.375000 0.781184
vt 0.625000 0.781184
vt 0.625000 0.812368
vt 0.625000 0.874736
vt 0.625000 0.937368
vt 1.500000 0.500000
vt 1.500000 0.750000
vt 0.000000 0.000000
vt 0.000000 0.000000
vt 0.656184 0.750000
vt 0.656184 0.500000
vt 1.500000 0.781184
vt 0.625000 0.468816
vt 1.500000 0.468816
vt 0.375000 0.500000
vt 0.625000 0.500000
vn -1.0000 0.0000 0.0000
vn 1.0000 0.0000 0.0000
vn 0.0000 -1.0000 0.0000
vn 0.0000 0.0000 -1.0000
vn 0.0000 0.0000 1.0000
vn 0.0000 1.0000 0.0000
g WindowWall.001_Cube.008_None
usemtl None
s off
f 80/136/13 81/137/13 83/138/13 82/139/13
f 86/140/14 87/141/14 85/142/14 84/143/14
f 106/144/15 86/140/15 84/143/15 105/145/15
f 98/146/16 83/138/16 109/147/16 111/148/16
f 92/149/15 88/150/15 90/151/15 95/152/15
f 118/153/17 115/154/17 112/155/17 108/156/17
f 96/157/15 92/149/15 95/152/15 99/158/15
f 82/159/15 96/157/15 99/158/15 80/160/15
f 114/161/18 113/162/18 112/155/18 115/154/18
f 88/150/15 102/163/15 101/164/15 90/151/15
f 118/153/15 108/165/15 109/166/15 117/167/15
f 85/142/14 87/141/14 114/161/14 115/154/14
f 100/168/18 89/169/18 94/170/18 98/171/18 97/172/18 93/173/18 91/174/18 103/175/18 107/176/18 104/177/18
f 102/163/15 106/144/15 105/145/15 101/164/15
f 109/147/16 113/162/16 114/178/16 117/167/16
f 83/138/13 81/137/13 108/156/13 109/147/13
f 81/179/17 97/180/17 110/181/17 108/182/17
f 97/172/14 98/171/14 111/183/14 110/184/14
f 109/147/13 108/156/13 112/155/13 113/162/13
f 97/180/17 81/179/17 80/185/17 99/186/17 95/187/17 90/188/17 101/189/17 105/190/17 84/143/17 85/142/17 107/191/17 103/192/17 91/193/17 93/194/17
f 85/142/14 87/141/14 117/195/14 118/196/14
f 116/197/18 119/198/18 118/153/18 117/167/18
f 104/177/13 107/176/13 119/199/13 116/200/13
f 107/191/17 85/142/17 118/196/17 119/201/17
f 87/141/16 104/202/16 116/203/16 117/195/16
f 87/141/17 86/140/17 121/204/17 120/205/17
f 86/140/17 106/144/17 121/204/17
f 104/202/17 87/141/17 120/205/17
f 82/139/16 83/138/16 120/205/16 121/204/16
o Window1_Cube.010
v 7.000000 2.000000 0.500000
v 7.000000 4.000000 0.500000
v 7.000000 2.000000 -0.500000
v 7.000000 4.000000 -0.500000
v 19.000000 2.000000 0.500000
v 19.000000 4.000000 0.500000
v 19.000000 2.000000 -0.500000
v 19.000000 4.000000 -0.500000
v 7.000000 9.000000 0.500000
v 7.000000 9.000000 -0.500000
v 19.000000 9.000000 -0.500000
v 19.000000 9.000000 0.500000
vt 0.375000 0.000000
vt 0.625000 0.000000
vt 0.625000 0.250000
vt 0.375000 0.250000
vt 0.375000 0.500000
vt 0.625000 0.500000
vt 0.625000 0.750000
vt 0.375000 0.750000
vt 0.125000 0.500000
vt 0.125000 0.750000
vt 1.250000 0.500000
vt 1.250000 0.750000
vt 0.625000 0.500000
vt 0.875000 0.500000
vt 0.875000 0.750000
vt 0.625000 0.750000
vt 1.250000 0.000000
vt 1.250000 0.250000
vn -1.0000 0.0000 0.0000
vn 1.0000 0.0000 0.0000
vn 0.0000 -1.0000 0.0000
vn 0.0000 1.0000 0.0000
vn 0.0000 0.0000 -1.0000
vn 0.0000 0.0000 1.0000
g Window1_Cube.010_Material.007
usemtl Material.007
s off
f 122/206/19 123/207/19 125/208/19 124/209/19
f 128/210/20 129/211/20 127/212/20 126/213/20
f 124/214/21 128/210/21 126/213/21 122/215/21
f 127/212/20 129/211/20 132/216/20 133/217/20
f 132/218/22 131/219/22 130/220/22 133/221/22
f 125/208/19 123/207/19 130/222/19 131/223/19
f 128/210/23 124/214/23 131/219/23 132/218/23
f 130/220/24 122/215/24 126/213/24 133/221/24
o leftWall_Cube.011
v -21.000000 0.000000 -1.000000
v -21.000000 2.000000 -1.000000
v -21.000000 0.000000 -37.000000
v -21.000000 2.000000 -37.000000
v -19.000000 0.000000 -1.000000
v -19.000000 2.000000 -1.000000
v -19.000000 0.000000 -37.000000
v -19.000000 2.000000 -37.000000
v -21.000000 11.000000 -1.000000
v -21.000000 11.000000 -37.000000
v -19.000000 11.000000 -37.000000
v -19.000000 11.000000 -1.000000
vt 0.375000 0.250000
vt 0.625000 0.250000
vt 0.625000 0.500000
vt 0.375000 0.500000
vt 0.375000 0.750000
vt 0.625000 0.750000
vt 0.625000 1.000000
vt 0.375000 1.000000
vt 0.125000 0.500000
vt 0.125000 0.750000
vt 1.750000 0.250000
vt 1.750000 0.500000
vt 0.625000 0.500000
vt 0.875000 0.500000
vt 0.875000 0.750000
vt 0.625000 0.750000
vt 1.750000 0.750000
vt 1.750000 1.000000
vt 0.375000 0.000000
vt 0.625000 0.000000
vt 1.750000 0.000000
vn 0.0000 0.0000 -1.0000
vn 0.0000 0.0000 1.0000
vn 0.0000 -1.0000 0.0000
vn 0.0000 1.0000 0.0000
vn 1.0000 0.0000 0.0000
vn -1.0000 0.0000 0.0000
g leftWall_Cube.011_None
usemtl None
s off
f 136/224/25 137/225/25 141/226/25 140/227/25
f 138/228/26 139/229/26 135/230/26 134/231/26
f 136/232/27 140/227/27 138/228/27 134/233/27
f 141/226/25 137/225/25 143/234/25 144/235/25
f 144/236/28 143/237/28 142/238/28 145/239/28
f 138/228/29 140/227/29 144/236/29 145/239/29
f 135/230/26 139/229/26 145/240/26 142/241/26
f 134/242/30 135/243/30 142/244/30 143/234/30 137/225/30 136/224/30
o Window2_Cube.012
v -19.000000 2.000000 0.500000
v -19.000000 4.000000 0.500000
v -19.000000 2.000000 -0.500000
v -19.000000 4.000000 -0.500000
v -7.000000 2.000000 0.500000
v -7.000000 4.000000 0.500000
v -7.000000 2.000000 -0.500000
v -7.000000 4.000000 -0.500000
v -19.000000 9.000000 0.500000
v -19.000000 9.000000 -0.500000
v -7.000000 9.000000 -0.500000
v -7.000000 9.000000 0.500000
vt 0.375000 0.000000
vt 0.625000 0.000000
vt 0.625000 0.250000
vt 0.375000 0.250000
vt 0.375000 0.500000
vt 0.625000 0.500000
vt 0.625000 0.750000
vt 0.375000 0.750000
vt 0.125000 0.500000
vt 0.125000 0.750000
vt 1.250000 0.500000
vt 1.250000 0.750000
vt 0.625000 0.500000
vt 0.875000 0.500000
vt 0.875000 0.750000
vt 0.625000 0.750000
vt 1.250000 0.000000
vt 1.250000 0.250000
vn -1.0000 0.0000 0.0000
vn 1.0000 0.0000 0.0000
vn 0.0000 -1.0000 0.0000
vn 0.0000 1.0000 0.0000
vn 0.0000 0.0000 -1.0000
vn 0.0000 0.0000 1.0000
g Window2_Cube.012_Material.012
usemtl Material.012
s off
f 146/245/31 147/246/31 149/247/31 148/248/31
f 152/249/32 153/250/32 151/251/32 150/252/32
f 148/253/33 152/249/33 150/252/33 146/254/33
f 151/251/32 153/250/32 156/255/32 157/256/32
f 156/257/34 155/258/34 154/259/34 157/260/34
f 149/247/31 147/246/31 154/261/31 155/262/31
f 152/249/35 148/253/35 155/258/35 156/257/35
f 154/259/36 146/254/36 150/252/36 157/260/36
o RightWall_Cube.013
v 19.000000 0.000000 -1.000000
v 19.000000 2.000000 -1.000000
v 19.000000 0.000000 -37.000000
v 19.000000 2.000000 -37.000000
v 21.000000 0.000000 -1.000000
v 21.000000 2.000000 -1.000000
v 21.000000 0.000000 -37.000000
v 21.000000 2.000000 -37.000000
v 19.000000 11.000000 -1.000000
v 19.000000 11.000000 -37.000000
v 21.000000 11.000000 -37.000000
v 21.000000 11.000000 -1.000000
vt 0.375000 0.250000
vt 0.625000 0.250000
vt 0.625000 0.500000
vt 0.375000 0.500000
vt 0.375000 0.750000
vt 0.625000 0.750000
vt 0.625000 1.000000
vt 0.375000 1.000000
vt 0.125000 0.500000
vt 0.125000 0.750000
vt 1.750000 0.250000
vt 1.750000 0.500000
vt 0.625000 0.500000
vt 0.875000 0.500000
vt 0.875000 0.750000
vt 0.625000 0.750000
vt 1.750000 0.750000
vt 1.750000 1.000000
vt 0.375000 0.000000
vt 0.625000 0.000000
vt 1.750000 0.000000
vn 0.0000 0.0000 -1.0000
vn 0.0000 0.0000 1.0000
vn 0.0000 -1.0000 0.0000
vn 0.0000 1.0000 0.0000
vn 1.0000 0.0000 0.0000
vn -1.0000 0.0000 0.0000
g RightWall_Cube.013_None
usemtl None
s off
f 160/263/37 161/264/37 165/265/37 164/266/37
f 162/267/38 163/268/38 159/269/38 158/270/38
f 160/271/39 164/266/39 162/267/39 158/272/39
f 165/265/37 161/264/37 167/273/37 168/274/37
f 168/275/40 167/276/40 166/277/40 169/278/40
f 162/267/41 164/266/41 168/275/41 169/278/41
f 159/269/38 163/268/38 169/279/38 166/280/38
f 158/281/42 159/282/42 166/283/42 167/273/42 161/264/42 160/263/42
o backwall_Cube.014
v 21.000000 0.000000 -37.000000
v 21.000000 2.000000 -37.000000
v -21.000000 0.000000 -37.000000
v -21.000000 2.000000 -37.000000
v 21.000000 0.000000 -39.000000
v 21.000000 2.000000 -39.000000
v -21.000000 0.000000 -39.000000
v -21.000000 2.000000 -39.000000
v 21.000000 11.000000 -37.000000
v -21.000000 11.000000 -37.000000
v -21.000000 11.000000 -39.000000
v 21.000000 11.000000 -39.000000
vt 0.375000 0.250000
vt 0.625000 0.250000
vt 1.750000 0.250000
vt 1.750000 0.500000
vt 0.625000 0.500000
vt 0.375000 0.500000
vt 0.125000 0.500000
vt 0.375000 0.750000
vt 0.125000 0.750000
vt 0.625000 0.500000
vt 0.875000 0.500000
vt 0.875000 0.750000
vt 0.625000 0.750000
vt 0.375000 0.000000
vt 0.625000 0.000000
vt 1.750000 0.000000
vt 0.625000 0.750000
vt 1.750000 0.750000
vt 1.750000 1.000000
vt 0.625000 1.000000
vt 0.375000 1.000000
vn -1.0000 0.0000 0.0000
vn 0.0000 -1.0000 0.0000
vn 0.0000 1.0000 0.0000
vn 0.0000 0.0000 -1.0000
vn 0.0000 0.0000 1.0000
vn 1.0000 0.0000 0.0000
g backwall_Cube.014_None
usemtl None
s off
f 172/284/43 173/285/43 179/286/43 180/287/43 177/288/43 176/289/43
f 172/290/44 176/289/44 174/291/44 170/292/44
f 180/293/45 179/294/45 178/295/45 181/296/45
f 174/291/46 176/289/46 180/293/46 181/296/46
f 170/297/47 171/298/47 178/299/47 179/286/47 173/285/47 172/284/47
f 174/291/48 175/300/48 181/301/48 178/302/48 171/303/48 170/304/48
