# Blender v2.91.2 OBJ File: 'wall.blend'
# www.blender.org
mtllib wall.mtl
o wall_Cube.001
v 7.571697 0.000000 -1.000000
v 7.571697 0.000000 1.000000
v 7.571697 2.000000 -1.000000
v 7.571697 2.000000 1.000000
v 9.571697 0.000000 -1.000000
v 9.571697 0.000000 1.000000
v 9.571697 2.000000 -1.000000
v 9.571697 2.000000 1.000000
v 7.571697 7.500000 1.000000
v 7.571697 7.500000 -1.000000
v 9.571697 7.500000 -1.000000
v 9.571697 7.500000 1.000000
v 7.571697 2.000000 -9.000000
v 7.571697 0.000000 -9.000000
v 9.571697 2.000000 -9.000000
v 9.571697 0.000000 -9.000000
v 9.571697 7.500000 -9.000000
v 7.571697 7.500000 -9.000000
v 7.571697 2.000000 -12.000000
v 7.571697 0.000001 -12.000000
v 9.571697 2.000000 -12.000000
v 9.571697 0.000001 -12.000000
v 9.571697 7.500000 -12.000000
v 7.571697 7.500000 -12.000000
vt 0.375000 0.000000
vt 0.625000 0.000000
vt 0.625000 0.250000
vt 0.375000 0.250000
vt 0.875000 0.500000
vt 0.625000 0.500000
vt 0.625000 -0.187500
vt 0.875000 -0.187500
vt 0.375000 0.500000
vt 0.625000 0.750000
vt 0.375000 0.750000
vt 0.625000 1.000000
vt 0.375000 1.000000
vt -0.625000 0.750000
vt -0.625000 0.500000
vt 0.875000 0.750000
vt 0.375000 0.250000
vt 0.625000 0.250000
vt 0.625000 0.500000
vt 0.375000 0.500000
vt 0.625000 0.937500
vt 0.375000 0.937500
vt 0.375000 -0.187500
vt -0.625000 0.937500
vt -0.625000 0.250000
vt -0.625000 1.000000
vt -1.000000 1.000000
vt -1.000000 0.750000
vt -1.000000 0.937500
vt -1.000000 0.250000
vt -0.625000 -0.187500
vt -0.625000 0.500000
vt -0.625000 0.250000
vt -0.625000 0.000000
vt 0.125000 0.500000
vt 0.375000 0.500000
vt 0.375000 0.750000
vt 0.125000 0.750000
vt 0.125000 -0.187500
vt 0.375000 -0.187500
vt -1.000000 0.500000
vt -1.000000 -0.187500
vt -1.000000 0.500000
vt -1.000000 0.250000
vt -1.000000 0.000000
vn -1.0000 0.0000 0.0000
vn 0.0000 -0.0000 1.0000
vn 1.0000 0.0000 0.0000
vn 0.0000 -1.0000 -0.0000
vn 0.0000 1.0000 0.0000
vn 0.0000 0.0000 -1.0000
usemtl Material
s off
f 1/1/1 2/2/1 4/3/1 3/4/1
f 4/5/2 8/6/2 12/7/2 9/8/2
f 7/9/3 8/6/3 6/10/3 5/11/3
f 5/11/4 6/10/4 2/12/4 1/13/4
f 7/9/3 5/11/3 16/14/3 15/15/3
f 8/6/2 4/5/2 2/16/2 6/10/2
f 10/17/5 9/18/5 12/19/5 11/20/5
f 3/4/1 4/3/1 9/21/1 10/22/1
f 8/6/3 7/9/3 11/23/3 12/7/3
f 3/4/1 10/22/1 18/24/1 13/25/1
f 16/14/4 14/26/4 20/27/4 22/28/4
f 13/25/1 18/24/1 24/29/1 19/30/1
f 5/11/4 1/13/4 14/26/4 16/14/4
f 11/23/3 7/9/3 15/15/3 17/31/3
f 10/17/5 11/20/5 17/32/5 18/33/5
f 1/1/1 3/4/1 13/25/1 14/34/1
f 19/35/6 21/36/6 22/37/6 20/38/6
f 21/36/6 19/35/6 24/39/6 23/40/6
f 17/31/3 15/15/3 21/41/3 23/42/3
f 18/33/5 17/32/5 23/43/5 24/44/5
f 15/15/3 16/14/3 22/28/3 21/41/3
f 14/34/1 13/25/1 19/30/1 20/45/1
